<svg width="186" height="186" viewBox="0 0 186 186" fill="none" xmlns="http://www.w3.org/2000/svg">
<rect x="0.5" y="0.5" width="185" height="185" stroke="grey"/>
<rect x="8.5" y="79.5" width="42" height="27" stroke="grey"/>
<line y1="-0.5" x2="14.1654" y2="-0.5" transform="matrix(0.691647 -0.722236 0.729647 0.683825 8.27216 95.9615)" stroke="grey"/>
<line y1="-0.5" x2="31.2249" y2="-0.5" transform="matrix(0.732132 0.681163 -0.689009 0.724753 17.7975 85.7308)" stroke="grey"/>
<path d="M45.8734 86.2692C45.8734 89.1105 43.5436 91.4231 40.6582 91.4231C37.7729 91.4231 35.4431 89.1105 35.4431 86.2692C35.4431 83.4279 37.7729 81.1154 40.6582 81.1154C43.5436 81.1154 45.8734 83.4279 45.8734 86.2692Z" stroke="grey"/>
<rect x="51.5" y="79.5" width="42" height="27" stroke="grey"/>
<line y1="-0.5" x2="14.1654" y2="-0.5" transform="matrix(0.691647 -0.722236 0.729647 0.683825 51.2721 95.9615)" stroke="grey"/>
<line y1="-0.5" x2="31.2249" y2="-0.5" transform="matrix(0.732132 0.681163 -0.689009 0.724753 60.7975 85.7308)" stroke="grey"/>
<path d="M88.8734 86.2692C88.8734 89.1105 86.5436 91.4231 83.6582 91.4231C80.7728 91.4231 78.443 89.1105 78.443 86.2692C78.443 83.4279 80.7728 81.1154 83.6582 81.1154C86.5436 81.1154 88.8734 83.4279 88.8734 86.2692Z" stroke="grey"/>
<rect x="94.5" y="79.5" width="42" height="27" stroke="grey"/>
<line y1="-0.5" x2="14.1654" y2="-0.5" transform="matrix(0.691647 -0.722236 0.729647 0.683825 94.2721 95.9615)" stroke="grey"/>
<line y1="-0.5" x2="31.2249" y2="-0.5" transform="matrix(0.732132 0.681163 -0.689009 0.724753 103.797 85.7308)" stroke="grey"/>
<path d="M131.873 86.2692C131.873 89.1105 129.544 91.4231 126.658 91.4231C123.773 91.4231 121.443 89.1105 121.443 86.2692C121.443 83.4279 123.773 81.1154 126.658 81.1154C129.544 81.1154 131.873 83.4279 131.873 86.2692Z" stroke="grey"/>
<rect x="137.5" y="79.5" width="42" height="27" stroke="grey"/>
<line y1="-0.5" x2="14.1654" y2="-0.5" transform="matrix(0.691647 -0.722236 0.729647 0.683825 137.272 95.9615)" stroke="grey"/>
<line y1="-0.5" x2="31.2249" y2="-0.5" transform="matrix(0.732132 0.681163 -0.689009 0.724753 146.797 85.7308)" stroke="grey"/>
<path d="M174.873 86.2692C174.873 89.1105 172.544 91.4231 169.658 91.4231C166.773 91.4231 164.443 89.1105 164.443 86.2692C164.443 83.4279 166.773 81.1154 169.658 81.1154C172.544 81.1154 174.873 83.4279 174.873 86.2692Z" stroke="grey"/>
</svg>
