<svg width="640" height="480" viewBox="0 0 640 480" fill="none" xmlns="http://www.w3.org/2000/svg">
<rect width="640" height="480" fill="#F1F2F3"/>
<path d="M77.432 109.184C65.336 109.184 56.216 112.256 50.072 118.4C44.12 124.544 39.8 135.008 37.112 149.792C37.112 150.176 36.536 150.368 35.384 150.368C34.424 150.368 33.944 150.176 33.944 149.792C34.712 142.88 35.576 133.856 36.536 122.72C37.496 111.584 37.976 103.232 37.976 97.664C37.976 96.704 38.456 96.224 39.416 96.224C40.568 96.224 41.144 96.704 41.144 97.664C41.144 101.888 46.328 104 56.696 104C73.016 104.576 92.312 104.864 114.584 104.864C125.912 104.864 137.912 104.672 150.584 104.288L170.168 104C177.08 104 182.168 103.52 185.432 102.56C188.888 101.6 191.096 99.68 192.056 96.8C192.248 96.032 192.824 95.648 193.784 95.648C194.744 95.648 195.224 96.032 195.224 96.8C194.648 102.368 194.072 110.816 193.496 122.144C192.92 133.472 192.632 142.688 192.632 149.792C192.632 150.176 192.056 150.368 190.904 150.368C189.752 150.368 189.176 150.176 189.176 149.792C188.6 134.816 185.528 124.352 179.96 118.4C174.392 112.256 165.176 109.184 152.312 109.184C143.672 109.184 137.528 109.568 133.88 110.336C130.232 111.104 127.736 112.736 126.392 115.232C125.048 117.728 124.376 121.952 124.376 127.904V260.672C124.376 266.624 125.048 270.944 126.392 273.632C127.736 276.32 130.328 278.144 134.168 279.104C138.008 280.064 144.056 280.544 152.312 280.544C152.888 280.544 153.176 281.12 153.176 282.272C153.176 283.424 152.888 284 152.312 284C145.976 284 140.888 283.904 137.048 283.712L114.584 283.424L92.984 283.712C89.144 283.904 83.864 284 77.144 284C76.76 284 76.568 283.424 76.568 282.272C76.568 281.12 76.76 280.544 77.144 280.544C85.4 280.544 91.448 280.064 95.288 279.104C99.128 278.144 101.72 276.32 103.064 273.632C104.6 270.752 105.368 266.432 105.368 260.672V127.328C105.368 121.376 104.696 117.248 103.352 114.944C102.008 112.448 99.512 110.912 95.864 110.336C92.216 109.568 86.072 109.184 77.432 109.184Z" fill="black"/>
<line x1="237" y1="98.5" x2="592" y2="98.5" stroke="black" stroke-width="3"/>
<line x1="237" y1="147.5" x2="592" y2="147.5" stroke="black" stroke-width="3"/>
<line x1="237" y1="193.5" x2="592" y2="193.5" stroke="black" stroke-width="3"/>
<line x1="237" y1="243.5" x2="592" y2="243.5" stroke="black" stroke-width="3"/>
<line x1="237" y1="292.5" x2="592" y2="292.5" stroke="black" stroke-width="3"/>
<line x1="40.0027" y1="340.5" x2="592.003" y2="341.5" stroke="black" stroke-width="3"/>
<line x1="40.0027" y1="395.5" x2="592.003" y2="396.5" stroke="black" stroke-width="3"/>
</svg>
