<svg width="501" height="359" viewBox="0 0 501 359" fill="none" xmlns="http://www.w3.org/2000/svg">
<g filter="url(#filter0_d)">
<rect x="4" width="493" height="351" fill="#F1F2F3"/>
</g>
<g filter="url(#filter1_d)">
<rect x="32" y="92" width="203" height="162" fill="#79BFFF"/>
<path d="M207.759 127.944C207.759 138.548 199.717 146.875 190.118 146.875C180.519 146.875 172.477 138.548 172.477 127.944C172.477 117.34 180.519 109.012 190.118 109.012C199.717 109.012 207.759 117.34 207.759 127.944Z" fill="#FFE711" stroke="#FFFAFA" stroke-width="5"/>
<rect width="67.2913" height="69.8353" transform="matrix(0.691954 0.721942 -0.677666 0.73537 163.697 142.963)" fill="#B6B77C"/>
<rect width="80.5162" height="79.959" transform="matrix(0.691954 0.721942 -0.677666 0.73537 99.0883 122.24)" fill="#C4C673"/>
<rect x="32.3172" y="174.012" width="202.683" height="79.9875" fill="#CCBE73"/>
</g>
<line x1="292" y1="93" x2="463" y2="93.005" stroke="black" stroke-width="2"/>
<line x1="261.995" y1="120.995" x2="462.995" y2="120" stroke="black" stroke-width="2"/>
<line x1="261.995" y1="147.995" x2="462.995" y2="147" stroke="black" stroke-width="2"/>
<line x1="261.995" y1="174.995" x2="462.995" y2="174" stroke="black" stroke-width="2"/>
<line x1="261.995" y1="201.995" x2="462.995" y2="201" stroke="black" stroke-width="2"/>
<line x1="261.995" y1="228.995" x2="462.995" y2="228" stroke="black" stroke-width="2"/>
<defs>
<filter id="filter0_d" x="0" y="0" width="501" height="359" filterUnits="userSpaceOnUse" color-interpolation-filters="sRGB">
<feFlood flood-opacity="0" result="BackgroundImageFix"/>
<feColorMatrix in="SourceAlpha" type="matrix" values="0 0 0 0 0 0 0 0 0 0 0 0 0 0 0 0 0 0 127 0"/>
<feOffset dy="4"/>
<feGaussianBlur stdDeviation="2"/>
<feColorMatrix type="matrix" values="0 0 0 0 0 0 0 0 0 0 0 0 0 0 0 0 0 0 0.25 0"/>
<feBlend mode="normal" in2="BackgroundImageFix" result="effect1_dropShadow"/>
<feBlend mode="normal" in="SourceGraphic" in2="effect1_dropShadow" result="shape"/>
</filter>
<filter id="filter1_d" x="28" y="92" width="211" height="170" filterUnits="userSpaceOnUse" color-interpolation-filters="sRGB">
<feFlood flood-opacity="0" result="BackgroundImageFix"/>
<feColorMatrix in="SourceAlpha" type="matrix" values="0 0 0 0 0 0 0 0 0 0 0 0 0 0 0 0 0 0 127 0"/>
<feOffset dy="4"/>
<feGaussianBlur stdDeviation="2"/>
<feColorMatrix type="matrix" values="0 0 0 0 0 0 0 0 0 0 0 0 0 0 0 0 0 0 0.25 0"/>
<feBlend mode="normal" in2="BackgroundImageFix" result="effect1_dropShadow"/>
<feBlend mode="normal" in="SourceGraphic" in2="effect1_dropShadow" result="shape"/>
</filter>
</defs>
</svg>
